<svg id="Layer_1" data-name="Layer 1" xmlns="http://www.w3.org/2000/svg" viewBox="0 0 662.52 350.36"><defs><style>.cls-1{fill:#e33f47;}.cls-2{fill:#61ad4e;}.cls-3,.cls-4,.cls-6,.cls-8{fill:none;stroke-miterlimit:10;}.cls-3,.cls-4,.cls-6{stroke:#231f20;}.cls-4{stroke-dasharray:6.21 6.21;}.cls-5{fill:#231f20;}.cls-6{stroke-linecap:round;}.cls-7{fill:#fff;}.cls-8{stroke:#61ad4e;}</style></defs><rect class="cls-1" x="59.61" y="37.88" width="21.71" height="53.64"/><rect class="cls-1" x="81.32" y="60.23" width="21.71" height="31.29"/><rect class="cls-1" x="103.03" y="75.88" width="21.71" height="15.65"/><rect class="cls-2" x="124.74" y="91.52" width="21.71" height="13.57"/><rect class="cls-2" x="146.46" y="91.52" width="21.71" height="30.1"/><rect class="cls-2" x="168.17" y="91.52" width="21.71" height="50.45"/><rect class="cls-2" x="189.88" y="91.52" width="21.71" height="21.71"/><rect class="cls-2" x="232.25" y="91.52" width="21.71" height="10.86"/><rect class="cls-1" x="254.17" y="75.28" width="21.71" height="15.97"/><rect class="cls-1" x="211.6" y="82.26" width="21.71" height="9.26"/><line class="cls-3" y1="91.52" x2="288.02" y2="91.52"/><line class="cls-3" x1="288.02" y1="91.52" x2="291.02" y2="91.52"/><line class="cls-4" x1="297.23" y1="91.52" x2="318.96" y2="91.52"/><line class="cls-3" x1="322.06" y1="91.52" x2="325.06" y2="91.52"/><path class="cls-1" d="M71.92,136.12H70.57L68.4,132.5a2.65,2.65,0,0,1-.22-.47h0c0,.1-.12.26-.23.47l-2.24,3.62H64.34l3.16-4.75-2.91-4.69h1.35L67.87,130a6.89,6.89,0,0,1,.34.66h0a7.62,7.62,0,0,1,.36-.68l2-3.29h1.27l-3,4.68Z" transform="translate(-55.65 -52.41)"/><path class="cls-1" d="M78,136.12H77v-1.06h0a2.25,2.25,0,0,1-2.07,1.21,2.21,2.21,0,0,1-1.58-.53,1.86,1.86,0,0,1-.57-1.42c0-1.26.74-2,2.23-2.19l2-.29c0-1.14-.47-1.72-1.39-1.72a3.33,3.33,0,0,0-2.2.83v-1.1a4.19,4.19,0,0,1,2.29-.63c1.59,0,2.38.83,2.38,2.51ZM77,132.7l-1.63.23a2.58,2.58,0,0,0-1.13.37,1.06,1.06,0,0,0-.38.95,1,1,0,0,0,.35.8,1.35,1.35,0,0,0,.94.31,1.7,1.7,0,0,0,1.32-.56,2,2,0,0,0,.53-1.42Z" transform="translate(-55.65 -52.41)"/><path class="cls-1" d="M83.59,130.47a1.29,1.29,0,0,0-.82-.22,1.37,1.37,0,0,0-1.15.65,3,3,0,0,0-.47,1.78v3.44H80.07v-6.75h1.08v1.39h0a2.41,2.41,0,0,1,.7-1.11,1.64,1.64,0,0,1,1.06-.39,1.84,1.84,0,0,1,.65.09Z" transform="translate(-55.65 -52.41)"/><path class="cls-1" d="M90.07,129.37l-2.26,3.41L90,136.12H88.77l-1.32-2.19-.3-.51h0l-.31.51-1.35,2.19H84.23l2.29-3.31-2.2-3.44h1.26l1.3,2.31c.1.17.2.34.29.52h0l1.69-2.83Z" transform="translate(-55.65 -52.41)"/><path class="cls-1" d="M96.16,136.12H95.08v-1.06h0A2.24,2.24,0,0,1,93,136.27a2.21,2.21,0,0,1-1.58-.53,1.86,1.86,0,0,1-.57-1.42c0-1.26.75-2,2.23-2.19l2-.29c0-1.14-.46-1.72-1.39-1.72a3.35,3.35,0,0,0-2.2.83v-1.1a4.21,4.21,0,0,1,2.29-.63c1.59,0,2.38.83,2.38,2.51Zm-1.08-3.42-1.63.23a2.62,2.62,0,0,0-1.13.37,1.09,1.09,0,0,0-.38.95,1,1,0,0,0,.35.8,1.37,1.37,0,0,0,.94.31,1.72,1.72,0,0,0,1.33-.56,2,2,0,0,0,.52-1.42Z" transform="translate(-55.65 -52.41)"/><path class="cls-5" d="M66,76.57v-13h3.69a4.09,4.09,0,0,1,2.67.82,2.67,2.67,0,0,1,1,2.15,3.14,3.14,0,0,1-.6,1.92,3.26,3.26,0,0,1-1.65,1.16v0a3.36,3.36,0,0,1,2.1,1A3,3,0,0,1,74,72.84a3.42,3.42,0,0,1-1.19,2.7,4.44,4.44,0,0,1-3,1ZM67.56,65v4.19h1.56a3,3,0,0,0,2-.6,2.11,2.11,0,0,0,.72-1.7Q71.8,65,69.31,65Zm0,5.55v4.67h2.06a3.1,3.1,0,0,0,2.08-.63,2.17,2.17,0,0,0,.74-1.74c0-1.53-1-2.3-3.13-2.3Z" transform="translate(-55.65 -52.41)"/><path class="cls-5" d="M83.1,76.57H81.62V75.12h0a3.12,3.12,0,0,1-2.85,1.67,3.05,3.05,0,0,1-2.17-.74,2.52,2.52,0,0,1-.78-1.94q0-2.6,3.06-3l2.78-.39c0-1.58-.64-2.37-1.91-2.37a4.58,4.58,0,0,0-3,1.14V68a5.73,5.73,0,0,1,3.15-.87c2.18,0,3.27,1.16,3.27,3.46Zm-1.48-4.69-2.24.31a3.75,3.75,0,0,0-1.56.51A1.48,1.48,0,0,0,77.3,74a1.43,1.43,0,0,0,.48,1.11,1.88,1.88,0,0,0,1.29.43,2.38,2.38,0,0,0,1.83-.78,2.74,2.74,0,0,0,.72-2Z" transform="translate(-55.65 -52.41)"/><path class="cls-5" d="M87.38,76.57H85.9V62.85h1.48Z" transform="translate(-55.65 -52.41)"/><path class="cls-5" d="M97,76.57H95.54V75.12h0a3.1,3.1,0,0,1-2.85,1.67,3.05,3.05,0,0,1-2.17-.74,2.52,2.52,0,0,1-.78-1.94q0-2.6,3.06-3l2.78-.39c0-1.58-.64-2.37-1.91-2.37a4.58,4.58,0,0,0-3,1.14V68a5.78,5.78,0,0,1,3.15-.87c2.18,0,3.27,1.16,3.27,3.46Zm-1.48-4.69-2.24.31a3.69,3.69,0,0,0-1.55.51,1.49,1.49,0,0,0-.53,1.3,1.43,1.43,0,0,0,.48,1.11,1.88,1.88,0,0,0,1.29.43,2.38,2.38,0,0,0,1.83-.78,2.74,2.74,0,0,0,.72-2Z" transform="translate(-55.65 -52.41)"/><path class="cls-5" d="M107.51,76.57H106V71.28c0-2-.72-3-2.16-3a2.34,2.34,0,0,0-1.84.84,3.13,3.13,0,0,0-.73,2.11v5.29H99.82V67.3h1.48v1.54h0a3.35,3.35,0,0,1,3-1.76,2.83,2.83,0,0,1,2.33,1,4.4,4.4,0,0,1,.8,2.83Z" transform="translate(-55.65 -52.41)"/><path class="cls-5" d="M116.63,76.15a4.91,4.91,0,0,1-2.54.64,4.21,4.21,0,0,1-3.2-1.29,4.69,4.69,0,0,1-1.21-3.35A5.13,5.13,0,0,1,111,68.47a4.6,4.6,0,0,1,3.5-1.39,4.9,4.9,0,0,1,2.16.46v1.52a3.82,3.82,0,0,0-2.21-.73,3,3,0,0,0-2.33,1A3.85,3.85,0,0,0,111.2,72a3.69,3.69,0,0,0,.85,2.57,3,3,0,0,0,2.3.94,3.7,3.7,0,0,0,2.28-.81Zm-.78,2.74q0,1.59-2.49,1.59l-.59,0v-.81a5.93,5.93,0,0,0,.64,0c.85,0,1.27-.27,1.27-.81s-.39-.71-1.16-.71a2.66,2.66,0,0,0-.38,0V76.57h1v.94a2,2,0,0,1,1.26.36A1.23,1.23,0,0,1,115.85,78.89Z" transform="translate(-55.65 -52.41)"/><path class="cls-5" d="M131.65,76.57h-1.49V71.28c0-2-.72-3-2.15-3a2.34,2.34,0,0,0-1.85.84,3.12,3.12,0,0,0-.72,2.11v5.29H124V67.3h1.49v1.54h0a3.36,3.36,0,0,1,3-1.76,2.83,2.83,0,0,1,2.33,1,4.34,4.34,0,0,1,.81,2.83Z" transform="translate(-55.65 -52.41)"/><path class="cls-5" d="M141.89,72.31h-6.54a3.45,3.45,0,0,0,.83,2.39,2.87,2.87,0,0,0,2.19.84,4.62,4.62,0,0,0,2.88-1V75.9a5.4,5.4,0,0,1-3.23.89,3.93,3.93,0,0,1-3.09-1.26A5.19,5.19,0,0,1,133.81,72,5,5,0,0,1,135,68.45a3.91,3.91,0,0,1,3-1.37,3.52,3.52,0,0,1,2.82,1.18,5,5,0,0,1,1,3.27Zm-1.52-1.26a3,3,0,0,0-.62-2,2.11,2.11,0,0,0-1.7-.72,2.39,2.39,0,0,0-1.78.75,3.41,3.41,0,0,0-.9,2Z" transform="translate(-55.65 -52.41)"/><path class="cls-5" d="M148.44,76.48a2.93,2.93,0,0,1-1.39.29c-1.62,0-2.43-.91-2.43-2.72V68.57H143V67.3h1.6V65l1.48-.48V67.3h2.34v1.27H146.1v5.22a2.16,2.16,0,0,0,.32,1.33,1.25,1.25,0,0,0,1.05.4,1.56,1.56,0,0,0,1-.31Z" transform="translate(-55.65 -52.41)"/><path class="cls-5" d="M163.19,76.57h-1.48V71.23c0-1.93-.72-2.9-2.16-2.9a2.36,2.36,0,0,0-1.83.84,3.15,3.15,0,0,0-.74,2.15v5.25H155.5V62.85H157v6h0a3.37,3.37,0,0,1,3-1.76q3.13,0,3.13,3.78Z" transform="translate(-55.65 -52.41)"/><path class="cls-5" d="M169.86,76.79a4.32,4.32,0,0,1-3.28-1.3A4.82,4.82,0,0,1,165.35,72a5,5,0,0,1,1.28-3.64,4.57,4.57,0,0,1,3.45-1.32,4.14,4.14,0,0,1,3.23,1.28,5,5,0,0,1,1.17,3.54,5,5,0,0,1-1.26,3.55A4.38,4.38,0,0,1,169.86,76.79Zm.11-8.46a2.82,2.82,0,0,0-2.26,1,4,4,0,0,0-.84,2.68,3.8,3.8,0,0,0,.85,2.6,2.86,2.86,0,0,0,2.25,1,2.7,2.7,0,0,0,2.21-.93A4,4,0,0,0,173,72a4.12,4.12,0,0,0-.78-2.68A2.71,2.71,0,0,0,170,68.33Z" transform="translate(-55.65 -52.41)"/><path class="cls-5" d="M181.68,68.8a1.87,1.87,0,0,0-1.12-.29,1.89,1.89,0,0,0-1.59.89,4.19,4.19,0,0,0-.64,2.45v4.72h-1.48V67.3h1.48v1.91h0a3.16,3.16,0,0,1,1-1.52,2.18,2.18,0,0,1,1.46-.55,2.27,2.27,0,0,1,.88.13Z" transform="translate(-55.65 -52.41)"/><path class="cls-5" d="M189.93,76.57h-1.49V75.12h0a3.12,3.12,0,0,1-2.85,1.67,3,3,0,0,1-2.17-.74,2.52,2.52,0,0,1-.78-1.94q0-2.6,3.06-3l2.77-.39c0-1.58-.63-2.37-1.9-2.37a4.58,4.58,0,0,0-3,1.14V68a5.73,5.73,0,0,1,3.15-.87c2.18,0,3.27,1.16,3.27,3.46Zm-1.49-4.69-2.23.31a3.75,3.75,0,0,0-1.56.51,1.48,1.48,0,0,0-.52,1.3,1.43,1.43,0,0,0,.48,1.11,1.85,1.85,0,0,0,1.29.43,2.38,2.38,0,0,0,1.83-.78,2.78,2.78,0,0,0,.71-2Z" transform="translate(-55.65 -52.41)"/><path class="cls-5" d="M197.56,68.8a2,2,0,0,0-2.71.6,4.12,4.12,0,0,0-.64,2.45v4.72h-1.48V67.3h1.48v1.91h0a3.16,3.16,0,0,1,1-1.52,2.17,2.17,0,0,1,1.45-.55,2.32,2.32,0,0,1,.89.13Z" transform="translate(-55.65 -52.41)"/><path class="cls-5" d="M199.93,65a1,1,0,0,1-.68-.27,1,1,0,0,1,0-1.38,1,1,0,0,1,1.37,0,.91.91,0,0,1,.29.69.94.94,0,0,1-.29.68A1,1,0,0,1,199.93,65Zm.73,11.62h-1.49V67.3h1.49Z" transform="translate(-55.65 -52.41)"/><path class="cls-2" d="M70.6,165.12h-5v-9.44h4.79v1H66.7v3.14h3.41v1H66.7v3.3h3.9Z" transform="translate(-55.65 -52.41)"/><path class="cls-2" d="M77.2,158.38l-2.27,3.41,2.23,3.33H75.9l-1.32-2.18c-.09-.14-.19-.31-.3-.52h0l-.31.52-1.34,2.18H71.35l2.3-3.3-2.2-3.44h1.26l1.3,2.3.28.53h0L76,158.38Z" transform="translate(-55.65 -52.41)"/><path class="cls-2" d="M83,164.81a3.52,3.52,0,0,1-1.84.47,3,3,0,0,1-2.33-.94,3.4,3.4,0,0,1-.89-2.43,3.75,3.75,0,0,1,1-2.68,3.37,3.37,0,0,1,2.55-1,3.51,3.51,0,0,1,1.56.33v1.11a2.74,2.74,0,0,0-1.6-.53,2.19,2.19,0,0,0-1.7.74,2.81,2.81,0,0,0-.66,1.95,2.7,2.7,0,0,0,.62,1.87,2.17,2.17,0,0,0,1.67.68,2.66,2.66,0,0,0,1.66-.59Z" transform="translate(-55.65 -52.41)"/><path class="cls-2" d="M90,162H85.24a2.53,2.53,0,0,0,.61,1.74,2.06,2.06,0,0,0,1.59.61,3.29,3.29,0,0,0,2.09-.75v1a3.9,3.9,0,0,1-2.35.65,2.84,2.84,0,0,1-2.24-.92,4.31,4.31,0,0,1,.07-5.15,2.88,2.88,0,0,1,2.22-1,2.56,2.56,0,0,1,2,.86,3.57,3.57,0,0,1,.72,2.37Zm-1.1-.91a2.22,2.22,0,0,0-.46-1.46,1.5,1.5,0,0,0-1.23-.52,1.74,1.74,0,0,0-1.3.55,2.54,2.54,0,0,0-.66,1.43Z" transform="translate(-55.65 -52.41)"/><path class="cls-2" d="M97.39,165.12H96.31V164h0a2.72,2.72,0,0,1-4.35.39,3.73,3.73,0,0,1-.76-2.46,4,4,0,0,1,.85-2.68,2.78,2.78,0,0,1,2.24-1,2.17,2.17,0,0,1,2,1.09h0v-4.17h1.08Zm-1.08-3.05v-1a1.9,1.9,0,0,0-.54-1.38,1.81,1.81,0,0,0-1.37-.57,1.85,1.85,0,0,0-1.55.72,3.18,3.18,0,0,0-.57,2,2.88,2.88,0,0,0,.54,1.84,1.77,1.77,0,0,0,1.46.67,1.88,1.88,0,0,0,1.47-.65A2.46,2.46,0,0,0,96.31,162.07Z" transform="translate(-55.65 -52.41)"/><path class="cls-2" d="M105,162h-4.76a2.53,2.53,0,0,0,.61,1.74,2.06,2.06,0,0,0,1.59.61,3.29,3.29,0,0,0,2.09-.75v1a3.9,3.9,0,0,1-2.35.65,2.84,2.84,0,0,1-2.24-.92,4.31,4.31,0,0,1,.07-5.15,2.88,2.88,0,0,1,2.22-1,2.56,2.56,0,0,1,2,.86,3.57,3.57,0,0,1,.72,2.37Zm-1.1-.91a2.22,2.22,0,0,0-.46-1.46,1.5,1.5,0,0,0-1.23-.52,1.74,1.74,0,0,0-1.3.55,2.54,2.54,0,0,0-.66,1.43Z" transform="translate(-55.65 -52.41)"/><path class="cls-2" d="M112.22,165.12h-1.08v-3.84c0-1.43-.52-2.15-1.57-2.15a1.7,1.7,0,0,0-1.34.61,2.29,2.29,0,0,0-.53,1.54v3.84h-1.08v-6.74h1.08v1.12h0a2.44,2.44,0,0,1,2.21-1.28,2,2,0,0,1,1.69.72,3.16,3.16,0,0,1,.59,2.06Z" transform="translate(-55.65 -52.41)"/><path class="cls-2" d="M117.38,165.05a2,2,0,0,1-1,.22q-1.77,0-1.77-2v-4h-1.16v-.92h1.16v-1.65l1.08-.34v2h1.7v.92h-1.7v3.8a1.63,1.63,0,0,0,.23,1,1,1,0,0,0,.77.29,1.13,1.13,0,0,0,.7-.23Z" transform="translate(-55.65 -52.41)"/><line class="cls-6" x1="189.65" y1="171.77" x2="166.98" y2="194.44"/><line class="cls-6" x1="166.98" y1="171.77" x2="189.65" y2="194.44"/><rect class="cls-1" x="59.61" y="287.98" width="43.43" height="21.71"/><rect class="cls-1" x="103.03" y="266.02" width="86.85" height="43.68"/><rect class="cls-1" x="254.17" y="267.02" width="21.71" height="42.4"/><rect class="cls-1" x="189.88" y="252.39" width="64.29" height="57.3"/><line class="cls-3" y1="309.7" x2="288.02" y2="309.7"/><line class="cls-3" x1="288.02" y1="309.7" x2="291.02" y2="309.7"/><line class="cls-4" x1="297.23" y1="309.7" x2="318.96" y2="309.7"/><line class="cls-3" x1="322.06" y1="309.7" x2="325.06" y2="309.7"/><path class="cls-7" d="M193.24,336.1h-1.35l-2.18-3.61a4.71,4.71,0,0,1-.21-.47h0c0,.1-.12.26-.22.47L187,336.1h-1.36l3.16-4.75-2.91-4.69h1.36l1.93,3.32a5.08,5.08,0,0,1,.33.66h0a6.67,6.67,0,0,1,.37-.69l2-3.29h1.27l-3,4.68Z" transform="translate(-55.65 -52.41)"/><path class="cls-7" d="M199.35,336.1h-1.08v-1.05h0a2.28,2.28,0,0,1-2.08,1.21,2.19,2.19,0,0,1-1.57-.54,1.82,1.82,0,0,1-.57-1.41c0-1.26.74-2,2.22-2.2l2-.28c0-1.15-.46-1.72-1.39-1.72a3.31,3.31,0,0,0-2.19.83v-1.11a4.16,4.16,0,0,1,2.29-.63q2.37,0,2.37,2.52Zm-1.08-3.41-1.62.22a2.82,2.82,0,0,0-1.14.37,1.1,1.1,0,0,0-.38,1,1,1,0,0,0,.36.81,1.37,1.37,0,0,0,.93.31,1.75,1.75,0,0,0,1.33-.56,2,2,0,0,0,.52-1.43Z" transform="translate(-55.65 -52.41)"/><path class="cls-7" d="M204.9,330.45a1.35,1.35,0,0,0-.81-.22,1.37,1.37,0,0,0-1.16.66,3,3,0,0,0-.46,1.77v3.44h-1.08v-6.74h1.08v1.39h0a2.33,2.33,0,0,1,.71-1.11,1.58,1.58,0,0,1,1.06-.4,1.78,1.78,0,0,1,.64.09Z" transform="translate(-55.65 -52.41)"/><path class="cls-7" d="M211.39,329.36l-2.27,3.41,2.23,3.33h-1.26l-1.32-2.19a5,5,0,0,1-.3-.51h0s-.12.21-.31.51l-1.34,2.19h-1.25l2.3-3.31-2.2-3.43h1.26l1.3,2.3c.1.17.19.35.28.53h0l1.69-2.83Z" transform="translate(-55.65 -52.41)"/><path class="cls-7" d="M217.48,336.1H216.4v-1.05h0a2.27,2.27,0,0,1-2.07,1.21,2.19,2.19,0,0,1-1.58-.54,1.82,1.82,0,0,1-.57-1.41c0-1.26.74-2,2.22-2.2l2-.28c0-1.15-.47-1.72-1.39-1.72a3.33,3.33,0,0,0-2.2.83v-1.11a4.16,4.16,0,0,1,2.29-.63c1.58,0,2.38.84,2.38,2.52Zm-1.08-3.41-1.63.22a2.71,2.71,0,0,0-1.13.37,1.07,1.07,0,0,0-.38,1,1,1,0,0,0,.35.81,1.4,1.4,0,0,0,.94.31,1.74,1.74,0,0,0,1.32-.56,2,2,0,0,0,.53-1.43Z" transform="translate(-55.65 -52.41)"/><path class="cls-5" d="M67.56,289.84v4.9H66v-13h3.57a4.68,4.68,0,0,1,3.22,1A3.59,3.59,0,0,1,74,285.64a4,4,0,0,1-1.27,3,4.86,4.86,0,0,1-3.44,1.18Zm0-6.7v5.32h1.59a3.59,3.59,0,0,0,2.41-.72,2.55,2.55,0,0,0,.82-2c0-1.71-1-2.57-3-2.57Z" transform="translate(-55.65 -52.41)"/><path class="cls-5" d="M81.06,287a1.83,1.83,0,0,0-1.13-.3,1.92,1.92,0,0,0-1.59.89,4.21,4.21,0,0,0-.63,2.45v4.72H76.22v-9.27h1.49v1.91h0a3.23,3.23,0,0,1,1-1.52,2.2,2.2,0,0,1,1.46-.55,2.36,2.36,0,0,1,.89.13Z" transform="translate(-55.65 -52.41)"/><path class="cls-5" d="M89.87,290.48H83.33a3.45,3.45,0,0,0,.83,2.39,2.87,2.87,0,0,0,2.19.84,4.52,4.52,0,0,0,2.88-1v1.39A5.37,5.37,0,0,1,86,295a3.93,3.93,0,0,1-3.09-1.26,5.16,5.16,0,0,1-1.12-3.55A5.06,5.06,0,0,1,83,286.62a3.91,3.91,0,0,1,3-1.36,3.5,3.5,0,0,1,2.82,1.17,5,5,0,0,1,1,3.27Zm-1.52-1.26a3,3,0,0,0-.62-2,2.08,2.08,0,0,0-1.69-.71,2.4,2.4,0,0,0-1.79.75,3.35,3.35,0,0,0-.9,2Z" transform="translate(-55.65 -52.41)"/><path class="cls-5" d="M99.61,294.74H98.13v-1.46h0A3,3,0,0,1,95.23,295c-2.21,0-3.31-1.31-3.31-3.95v-5.54h1.47v5.31c0,2,.75,2.93,2.25,2.93a2.3,2.3,0,0,0,1.79-.8,3.09,3.09,0,0,0,.7-2.09v-5.35h1.48Z" transform="translate(-55.65 -52.41)"/><path class="cls-5" d="M115.38,294.74H113.9V289.4c0-1.93-.72-2.89-2.16-2.89a2.35,2.35,0,0,0-1.83.83,3.15,3.15,0,0,0-.74,2.15v5.25h-1.48V281h1.48v6h0a3.36,3.36,0,0,1,3-1.75q3.14,0,3.13,3.77Z" transform="translate(-55.65 -52.41)"/><path class="cls-5" d="M122.05,295a4.29,4.29,0,0,1-3.28-1.3,4.78,4.78,0,0,1-1.23-3.44,5,5,0,0,1,1.28-3.65,4.57,4.57,0,0,1,3.45-1.31,4.14,4.14,0,0,1,3.23,1.27,5,5,0,0,1,1.17,3.54,5,5,0,0,1-1.26,3.56A4.37,4.37,0,0,1,122.05,295Zm.11-8.45a2.81,2.81,0,0,0-2.26,1,4,4,0,0,0-.84,2.68,3.74,3.74,0,0,0,.85,2.6,2.86,2.86,0,0,0,2.25.95,2.7,2.7,0,0,0,2.21-.93,4,4,0,0,0,.78-2.65,4.1,4.1,0,0,0-.78-2.68A2.68,2.68,0,0,0,122.16,286.51Z" transform="translate(-55.65 -52.41)"/><path class="cls-5" d="M133.87,287a1.8,1.8,0,0,0-1.12-.3,1.92,1.92,0,0,0-1.59.89,4.21,4.21,0,0,0-.64,2.45v4.72H129v-9.27h1.48v1.91h0a3.16,3.16,0,0,1,1-1.52,2.18,2.18,0,0,1,1.46-.55,2.27,2.27,0,0,1,.88.13Z" transform="translate(-55.65 -52.41)"/><path class="cls-5" d="M142.12,294.74h-1.49v-1.45h0a3.1,3.1,0,0,1-2.85,1.67,3,3,0,0,1-2.17-.73,2.55,2.55,0,0,1-.78-2q0-2.59,3.06-3l2.77-.39c0-1.58-.63-2.36-1.91-2.36a4.57,4.57,0,0,0-3,1.14v-1.52a5.73,5.73,0,0,1,3.15-.87q3.27,0,3.27,3.45Zm-1.49-4.69-2.23.31a3.75,3.75,0,0,0-1.56.51,1.48,1.48,0,0,0-.52,1.3,1.43,1.43,0,0,0,.48,1.11,1.85,1.85,0,0,0,1.29.43,2.37,2.37,0,0,0,1.82-.77,2.77,2.77,0,0,0,.72-2Z" transform="translate(-55.65 -52.41)"/><path class="cls-2" d="M67.77,336.26h-5v-9.44h4.8v1H63.87V331h3.41v1H63.87v3.31h3.9Z" transform="translate(-55.65 -52.41)"/><path class="cls-2" d="M74.36,329.52l-2.26,3.41,2.22,3.33H73.07l-1.33-2.19c-.08-.13-.18-.31-.29-.51h0s-.12.21-.31.51l-1.35,2.19H68.52l2.3-3.31-2.2-3.43h1.25l1.31,2.3.28.53h0l1.68-2.83Z" transform="translate(-55.65 -52.41)"/><path class="cls-2" d="M80.12,336a3.56,3.56,0,0,1-1.85.47,3.06,3.06,0,0,1-2.32-.94,3.42,3.42,0,0,1-.89-2.44,3.7,3.7,0,0,1,1-2.67,3.33,3.33,0,0,1,2.54-1,3.52,3.52,0,0,1,1.57.33v1.1a2.76,2.76,0,0,0-1.61-.52,2.14,2.14,0,0,0-1.69.74,2.8,2.8,0,0,0-.66,1.94,2.64,2.64,0,0,0,.62,1.87,2.13,2.13,0,0,0,1.67.69,2.72,2.72,0,0,0,1.66-.59Z" transform="translate(-55.65 -52.41)"/><path class="cls-2" d="M87.17,333.16H82.41a2.53,2.53,0,0,0,.6,1.73,2.1,2.1,0,0,0,1.6.62,3.31,3.31,0,0,0,2.09-.75v1a3.92,3.92,0,0,1-2.35.65,2.84,2.84,0,0,1-2.24-.92,3.76,3.76,0,0,1-.82-2.59,3.69,3.69,0,0,1,.89-2.56,2.87,2.87,0,0,1,2.22-1,2.52,2.52,0,0,1,2,.85,3.55,3.55,0,0,1,.73,2.38Zm-1.11-.92a2.13,2.13,0,0,0-.45-1.45,1.53,1.53,0,0,0-1.23-.52,1.77,1.77,0,0,0-1.3.54,2.45,2.45,0,0,0-.66,1.43Z" transform="translate(-55.65 -52.41)"/><path class="cls-2" d="M94.55,336.26H93.47v-1.15h0a2.5,2.5,0,0,1-2.32,1.31,2.53,2.53,0,0,1-2-.91,3.7,3.7,0,0,1-.76-2.47,4,4,0,0,1,.84-2.67,2.76,2.76,0,0,1,2.25-1,2.16,2.16,0,0,1,2,1.09h0v-4.17h1.08Zm-1.08-3.05v-1a1.94,1.94,0,0,0-.54-1.39,1.82,1.82,0,0,0-1.37-.56A1.88,1.88,0,0,0,90,331a3.15,3.15,0,0,0-.56,2,2.86,2.86,0,0,0,.54,1.84,1.78,1.78,0,0,0,1.46.68,1.84,1.84,0,0,0,1.46-.65A2.43,2.43,0,0,0,93.47,333.21Z" transform="translate(-55.65 -52.41)"/><path class="cls-2" d="M102.16,333.16H97.4a2.48,2.48,0,0,0,.6,1.73,2.1,2.1,0,0,0,1.6.62,3.31,3.31,0,0,0,2.09-.75v1a3.92,3.92,0,0,1-2.35.65,2.88,2.88,0,0,1-2.25-.92,3.81,3.81,0,0,1-.81-2.59,3.69,3.69,0,0,1,.89-2.56,2.85,2.85,0,0,1,2.22-1,2.52,2.52,0,0,1,2,.85,3.55,3.55,0,0,1,.73,2.38Zm-1.11-.92a2.13,2.13,0,0,0-.45-1.45,1.53,1.53,0,0,0-1.23-.52,1.75,1.75,0,0,0-1.3.54,2.45,2.45,0,0,0-.66,1.43Z" transform="translate(-55.65 -52.41)"/><path class="cls-2" d="M109.39,336.26h-1.08v-3.85c0-1.43-.53-2.14-1.57-2.14a1.68,1.68,0,0,0-1.34.61,2.24,2.24,0,0,0-.53,1.53v3.85h-1.08v-6.74h1.08v1.12h0a2.41,2.41,0,0,1,2.21-1.28,2.07,2.07,0,0,1,1.69.71,3.21,3.21,0,0,1,.59,2.07Z" transform="translate(-55.65 -52.41)"/><path class="cls-2" d="M114.55,336.19a2.11,2.11,0,0,1-1,.21c-1.18,0-1.77-.66-1.77-2v-4h-1.16v-.92h1.16v-1.65l1.08-.35v2h1.7v.92h-1.7v3.8a1.51,1.51,0,0,0,.23,1,.89.89,0,0,0,.76.29,1.15,1.15,0,0,0,.71-.22Z" transform="translate(-55.65 -52.41)"/><line class="cls-8" x1="5.88" y1="296.1" x2="292.4" y2="296.1"/><path class="cls-3" d="M402.91,393.44s48.3,0,47.67-46.92c-.33-24.41-.33-79.29-.2-91.53.32-31.81,42.15-32.72,42.15-32.72s-41.32.91-42-33c-.22-10.29.46-72.87.2-95-.48-41.4-47.77-41.4-47.77-41.4" transform="translate(-55.65 -52.41)"/><path class="cls-5" d="M569.76,154.93h-3.91v3.47h3.62v1h-3.62v4.43h-1.17v-10h5.08Z" transform="translate(-55.65 -52.41)"/><path class="cls-5" d="M576.09,163.88H575v-1.12h0a2.4,2.4,0,0,1-2.2,1.29,2.33,2.33,0,0,1-1.67-.57,1.94,1.94,0,0,1-.6-1.5c0-1.33.78-2.11,2.36-2.33l2.14-.3c0-1.21-.49-1.82-1.47-1.82a3.52,3.52,0,0,0-2.34.88v-1.17a4.44,4.44,0,0,1,2.43-.67c1.68,0,2.52.88,2.52,2.66ZM575,160.27l-1.72.23a2.85,2.85,0,0,0-1.21.4,1.13,1.13,0,0,0-.4,1,1.07,1.07,0,0,0,.37.85,1.41,1.41,0,0,0,1,.34,1.82,1.82,0,0,0,1.4-.6A2.14,2.14,0,0,0,575,161Z" transform="translate(-55.65 -52.41)"/><path class="cls-5" d="M583.12,163.55a3.72,3.72,0,0,1-2,.5,3.23,3.23,0,0,1-2.47-1,3.57,3.57,0,0,1-.94-2.57,4,4,0,0,1,1-2.84,3.54,3.54,0,0,1,2.71-1.07,3.82,3.82,0,0,1,1.66.34v1.18a2.94,2.94,0,0,0-1.71-.56,2.28,2.28,0,0,0-1.79.78,3,3,0,0,0-.71,2.07,2.84,2.84,0,0,0,.66,2,2.29,2.29,0,0,0,1.77.73,2.84,2.84,0,0,0,1.76-.63Z" transform="translate(-55.65 -52.41)"/><path class="cls-5" d="M588.17,163.81a2.21,2.21,0,0,1-1.07.22c-1.25,0-1.88-.69-1.88-2.09v-4.23H584v-1h1.22V155l1.15-.37v2.11h1.8v1h-1.8v4a1.66,1.66,0,0,0,.24,1,1,1,0,0,0,.81.31,1.2,1.2,0,0,0,.75-.24Z" transform="translate(-55.65 -52.41)"/><path class="cls-5" d="M595.48,163.88h-1.15v-1.13h0a2.35,2.35,0,0,1-2.21,1.3c-1.7,0-2.55-1-2.55-3v-4.28h1.13v4.09c0,1.51.58,2.27,1.73,2.27a1.76,1.76,0,0,0,1.38-.62,2.37,2.37,0,0,0,.54-1.62v-4.12h1.15Z" transform="translate(-55.65 -52.41)"/><path class="cls-5" d="M601.52,157.89a1.43,1.43,0,0,0-.87-.23,1.45,1.45,0,0,0-1.22.69,3.19,3.19,0,0,0-.5,1.89v3.64h-1.14v-7.15h1.14v1.48h0a2.48,2.48,0,0,1,.75-1.18,1.7,1.7,0,0,1,1.12-.42,1.8,1.8,0,0,1,.69.1Z" transform="translate(-55.65 -52.41)"/><path class="cls-5" d="M607.88,163.88h-1.15v-1.12h0a2.6,2.6,0,0,1-3.87.72,1.94,1.94,0,0,1-.6-1.5c0-1.33.79-2.11,2.36-2.33l2.14-.3c0-1.21-.49-1.82-1.47-1.82a3.49,3.49,0,0,0-2.33.88v-1.17a4.39,4.39,0,0,1,2.43-.67c1.68,0,2.52.88,2.52,2.66Zm-1.15-3.61-1.72.23a2.85,2.85,0,0,0-1.2.4,1.14,1.14,0,0,0-.41,1,1.08,1.08,0,0,0,.38.85,1.39,1.39,0,0,0,1,.34,1.84,1.84,0,0,0,1.41-.6,2.13,2.13,0,0,0,.55-1.51Z" transform="translate(-55.65 -52.41)"/><rect class="cls-3" x="470.05" y="86.08" width="120.73" height="171.36" rx="13.31"/><line class="cls-3" x1="486.48" y1="130.41" x2="501.25" y2="130.41"/><line class="cls-3" x1="486.48" y1="147.97" x2="573.82" y2="147.97"/><line class="cls-3" x1="487.07" y1="165.54" x2="574.42" y2="165.54"/><line class="cls-3" x1="485.51" y1="183.11" x2="572.85" y2="183.11"/><line class="cls-3" x1="485.51" y1="200.67" x2="572.85" y2="200.67"/><line class="cls-3" x1="485.51" y1="218.24" x2="572.85" y2="218.24"/><line class="cls-3" x1="529.18" y1="235.8" x2="572.52" y2="235.8"/><path class="cls-5" d="M526.61,341.43V339.8a2.61,2.61,0,0,0,.61.45,5,5,0,0,0,.75.33,5.9,5.9,0,0,0,.8.21,4,4,0,0,0,.73.08,2.66,2.66,0,0,0,1.74-.48,1.64,1.64,0,0,0,.58-1.36,1.7,1.7,0,0,0-.19-.83,2.48,2.48,0,0,0-.53-.65,6.58,6.58,0,0,0-.8-.56l-1-.56c-.37-.21-.73-.42-1-.63a4.64,4.64,0,0,1-.85-.71,3,3,0,0,1-.57-.88,3,3,0,0,1,1-3.53,3.72,3.72,0,0,1,1.2-.58,5.21,5.21,0,0,1,1.37-.19,4.86,4.86,0,0,1,2.32.42v1.56a4,4,0,0,0-2.45-.73,3.92,3.92,0,0,0-.83.1,2,2,0,0,0-.73.31,1.64,1.64,0,0,0-.53.55,1.61,1.61,0,0,0-.2.82,1.69,1.69,0,0,0,.61,1.38,3.93,3.93,0,0,0,.73.53c.29.17.62.36,1,.56s.75.43,1.09.66a4.89,4.89,0,0,1,.91.76,3.36,3.36,0,0,1,.62.93,2.87,2.87,0,0,1,.23,1.17,3.18,3.18,0,0,1-.31,1.48,2.76,2.76,0,0,1-.84,1,3.57,3.57,0,0,1-1.22.55,6.28,6.28,0,0,1-1.46.17,5.6,5.6,0,0,1-.63-.05,7.28,7.28,0,0,1-.77-.13,7.19,7.19,0,0,1-.74-.21A2.24,2.24,0,0,1,526.61,341.43Z" transform="translate(-55.65 -52.41)"/><path class="cls-5" d="M541.35,341.91h-1.23v-1.33h0a2.52,2.52,0,0,1-2.38,1.53q-2.75,0-2.75-3.59v-5h1.23v4.83c0,1.77.62,2.66,1.86,2.66a1.79,1.79,0,0,0,1.48-.73,2.93,2.93,0,0,0,.59-1.9v-4.86h1.23Z" transform="translate(-55.65 -52.41)"/><path class="cls-5" d="M554.77,341.91h-1.24v-4.84a3.94,3.94,0,0,0-.39-2,1.45,1.45,0,0,0-1.33-.63,1.63,1.63,0,0,0-1.34.79,3.23,3.23,0,0,0-.55,1.9v4.8h-1.24v-5c0-1.66-.58-2.49-1.75-2.49a1.57,1.57,0,0,0-1.33.75,3.21,3.21,0,0,0-.53,1.94v4.8h-1.23v-8.43h1.23v1.34h0a2.59,2.59,0,0,1,2.39-1.53,2.13,2.13,0,0,1,1.38.48,2.45,2.45,0,0,1,.8,1.26,2.73,2.73,0,0,1,2.56-1.74c1.69,0,2.54,1.14,2.54,3.43Z" transform="translate(-55.65 -52.41)"/><path class="cls-5" d="M562.6,341.91h-1.23v-1.32h0a2.54,2.54,0,0,1-2.36,1.52,2.28,2.28,0,0,1-2.46-2.44,2.59,2.59,0,0,1,2.54-2.75l2.31-.35c0-1.43-.53-2.15-1.58-2.15a3.6,3.6,0,0,0-2.51,1v-1.38a4.4,4.4,0,0,1,2.61-.79c1.81,0,2.71,1,2.71,3.14Zm-1.23-4.26-1.85.28a2.89,2.89,0,0,0-1.3.46,1.42,1.42,0,0,0-.43,1.18,1.33,1.33,0,0,0,.4,1,1.47,1.47,0,0,0,1.07.39,1.88,1.88,0,0,0,1.51-.7,2.64,2.64,0,0,0,.6-1.78Z" transform="translate(-55.65 -52.41)"/><path class="cls-5" d="M575.71,341.91h-1.23v-1.43h0a3,3,0,0,1-5,.5,4.94,4.94,0,0,1-.87-3.08,5.37,5.37,0,0,1,1-3.35,3.07,3.07,0,0,1,2.56-1.26,2.42,2.42,0,0,1,2.31,1.36h0v-5.21h1.23Zm-1.23-3.81v-1.24a2.5,2.5,0,0,0-.62-1.73,2,2,0,0,0-1.56-.71,2,2,0,0,0-1.77.91,4.24,4.24,0,0,0-.65,2.5,3.83,3.83,0,0,0,.62,2.3,2,2,0,0,0,1.67.84,2,2,0,0,0,1.67-.81A3.21,3.21,0,0,0,574.48,338.1Z" transform="translate(-55.65 -52.41)"/><path class="cls-5" d="M584.39,338H579a3.36,3.36,0,0,0,.69,2.18,2.28,2.28,0,0,0,1.82.76,3.57,3.57,0,0,0,2.39-.94v1.27a4.18,4.18,0,0,1-2.68.81,3.13,3.13,0,0,1-2.57-1.15,5,5,0,0,1-.93-3.23,4.85,4.85,0,0,1,1-3.2,3.14,3.14,0,0,1,2.53-1.24,2.76,2.76,0,0,1,2.34,1.07,4.75,4.75,0,0,1,.82,3Zm-1.26-1.14a2.9,2.9,0,0,0-.51-1.82,1.7,1.7,0,0,0-1.41-.65,1.9,1.9,0,0,0-1.48.69,3.15,3.15,0,0,0-.75,1.78Z" transform="translate(-55.65 -52.41)"/><path class="cls-5" d="M594.05,341.83a2.28,2.28,0,0,1-1.15.26c-1.35,0-2-.82-2-2.47v-5h-1.32v-1.16h1.32v-2.05l1.24-.44v2.49h1.94v1.16h-1.94v4.74a2.07,2.07,0,0,0,.26,1.21,1,1,0,0,0,.87.37,1.28,1.28,0,0,0,.81-.28Z" transform="translate(-55.65 -52.41)"/><path class="cls-5" d="M598.79,342.11a3.45,3.45,0,0,1-2.73-1.18,4.62,4.62,0,0,1-1-3.13,4.86,4.86,0,0,1,1.05-3.32,3.68,3.68,0,0,1,2.87-1.19,3.3,3.3,0,0,1,2.69,1.16,4.88,4.88,0,0,1,1,3.21,4.78,4.78,0,0,1-1,3.23A3.48,3.48,0,0,1,598.79,342.11Zm.09-7.69a2.26,2.26,0,0,0-1.88.89,3.87,3.87,0,0,0-.69,2.44,3.63,3.63,0,0,0,.7,2.36,2.26,2.26,0,0,0,1.87.86,2.16,2.16,0,0,0,1.84-.85,4,4,0,0,0,.64-2.41,4,4,0,0,0-.64-2.43A2.17,2.17,0,0,0,598.88,334.42Z" transform="translate(-55.65 -52.41)"/><path class="cls-5" d="M608.16,341.83a2.25,2.25,0,0,1-1.15.26c-1.35,0-2-.82-2-2.47v-5h-1.32v-1.16H605v-2.05l1.23-.44v2.49h1.94v1.16h-1.94v4.74a2.15,2.15,0,0,0,.26,1.21,1,1,0,0,0,.88.37,1.24,1.24,0,0,0,.8-.28Z" transform="translate(-55.65 -52.41)"/><path class="cls-5" d="M609.34,341.61v-1.45a3.46,3.46,0,0,0,2.22.81c1.08,0,1.62-.39,1.62-1.18a1,1,0,0,0-.14-.57,1.47,1.47,0,0,0-.37-.42,2.73,2.73,0,0,0-.56-.32l-.69-.3a9.41,9.41,0,0,1-.9-.45,2.76,2.76,0,0,1-.64-.51,1.88,1.88,0,0,1-.39-.65,2.41,2.41,0,0,1-.13-.85,2.26,2.26,0,0,1,.24-1.05,2.33,2.33,0,0,1,.67-.76,2.86,2.86,0,0,1,.94-.47,4.26,4.26,0,0,1,2.88.23V335a3.32,3.32,0,0,0-2-.61,2.08,2.08,0,0,0-.63.09,1.6,1.6,0,0,0-.47.24,1,1,0,0,0-.31.38,1,1,0,0,0-.11.48,1.15,1.15,0,0,0,.11.55,1.08,1.08,0,0,0,.32.39,2.48,2.48,0,0,0,.51.32l.68.3a8.83,8.83,0,0,1,.92.44,3.09,3.09,0,0,1,.69.51,2,2,0,0,1,.44.66,2.31,2.31,0,0,1,.15.88,2.18,2.18,0,0,1-.25,1.08,2.36,2.36,0,0,1-.67.77,3,3,0,0,1-1,.45,4.37,4.37,0,0,1-1.15.15A4.11,4.11,0,0,1,609.34,341.61Z" transform="translate(-55.65 -52.41)"/><path class="cls-5" d="M626.74,338h-5.43a3.36,3.36,0,0,0,.69,2.18,2.28,2.28,0,0,0,1.82.76,3.58,3.58,0,0,0,2.39-.94v1.27a4.19,4.19,0,0,1-2.69.81A3.11,3.11,0,0,1,621,341a5,5,0,0,1-.93-3.23,4.85,4.85,0,0,1,1-3.2,3.14,3.14,0,0,1,2.53-1.24,2.76,2.76,0,0,1,2.33,1.07,4.68,4.68,0,0,1,.83,3Zm-1.26-1.14a3,3,0,0,0-.52-1.82,1.7,1.7,0,0,0-1.41-.65,1.91,1.91,0,0,0-1.48.69,3.29,3.29,0,0,0-.75,1.78Z" transform="translate(-55.65 -52.41)"/><path class="cls-5" d="M629.84,341.91H628.6V329.44h1.24Z" transform="translate(-55.65 -52.41)"/><path class="cls-5" d="M631.87,341.61v-1.45a3.45,3.45,0,0,0,2.21.81c1.09,0,1.63-.39,1.63-1.18a1.09,1.09,0,0,0-.14-.57,1.37,1.37,0,0,0-.38-.42,2.65,2.65,0,0,0-.55-.32l-.69-.3a9.41,9.41,0,0,1-.9-.45,2.83,2.83,0,0,1-.65-.51,2,2,0,0,1-.39-.65,2.66,2.66,0,0,1-.13-.85,2.14,2.14,0,0,1,.25-1.05,2.3,2.3,0,0,1,.66-.76,3.07,3.07,0,0,1,.94-.47,4.29,4.29,0,0,1,2.89.23V335a3.33,3.33,0,0,0-2-.61,2,2,0,0,0-.62.09,1.54,1.54,0,0,0-.48.24,1.26,1.26,0,0,0-.31.38,1.06,1.06,0,0,0-.11.48,1.28,1.28,0,0,0,.11.55,1.2,1.2,0,0,0,.32.39,2.48,2.48,0,0,0,.51.32l.69.3a8.62,8.62,0,0,1,.91.44,3.41,3.41,0,0,1,.7.51,2.12,2.12,0,0,1,.44.66,2.31,2.31,0,0,1,.15.88,2.18,2.18,0,0,1-.25,1.08,2.36,2.36,0,0,1-.67.77,3.19,3.19,0,0,1-1,.45,4.37,4.37,0,0,1-1.15.15A4.08,4.08,0,0,1,631.87,341.61Z" transform="translate(-55.65 -52.41)"/><path class="cls-5" d="M649.13,333.48l-3.07,8.43h-1.21l-2.91-8.43h1.35l2,6.13a6.07,6.07,0,0,1,.28,1.17h0a6,6,0,0,1,.24-1.14l2-6.16Z" transform="translate(-55.65 -52.41)"/><path class="cls-5" d="M655.68,341.91h-1.23v-1.32h0a2.55,2.55,0,0,1-2.37,1.52,2.4,2.4,0,0,1-1.8-.67,2.43,2.43,0,0,1-.65-1.77,2.59,2.59,0,0,1,2.54-2.75l2.31-.35c0-1.43-.53-2.15-1.58-2.15a3.64,3.64,0,0,0-2.52,1v-1.38a4.46,4.46,0,0,1,2.62-.79c1.81,0,2.71,1,2.71,3.14Zm-1.23-4.26-1.85.28a2.89,2.89,0,0,0-1.3.46,1.42,1.42,0,0,0-.43,1.18,1.33,1.33,0,0,0,.4,1,1.47,1.47,0,0,0,1.07.39,1.88,1.88,0,0,0,1.51-.7,2.64,2.64,0,0,0,.6-1.78Z" transform="translate(-55.65 -52.41)"/><path class="cls-5" d="M659.24,341.91H658V329.44h1.23Z" transform="translate(-55.65 -52.41)"/><path class="cls-5" d="M665,342.11a3.43,3.43,0,0,1-2.72-1.18,4.62,4.62,0,0,1-1-3.13,4.81,4.81,0,0,1,1.06-3.32,3.65,3.65,0,0,1,2.86-1.19,3.28,3.28,0,0,1,2.69,1.16,4.88,4.88,0,0,1,1,3.21,4.73,4.73,0,0,1-1,3.23A3.48,3.48,0,0,1,665,342.11Zm.09-7.69a2.26,2.26,0,0,0-1.88.89,3.87,3.87,0,0,0-.69,2.44,3.63,3.63,0,0,0,.7,2.36A2.27,2.27,0,0,0,665,341a2.16,2.16,0,0,0,1.84-.85,3.89,3.89,0,0,0,.64-2.41,4,4,0,0,0-.64-2.43A2.17,2.17,0,0,0,665,334.42Z" transform="translate(-55.65 -52.41)"/><path class="cls-5" d="M674.77,334.85a1.43,1.43,0,0,0-.93-.27,1.54,1.54,0,0,0-1.32.81,4,4,0,0,0-.53,2.23v4.29h-1.24v-8.43H672v1.74h0a3,3,0,0,1,.8-1.39,1.75,1.75,0,0,1,1.21-.49,1.83,1.83,0,0,1,.74.11Z" transform="translate(-55.65 -52.41)"/><path class="cls-5" d="M675.74,341.61v-1.45A3.5,3.5,0,0,0,678,341c1.08,0,1.63-.39,1.63-1.18a1.09,1.09,0,0,0-.14-.57,1.51,1.51,0,0,0-.38-.42,2.65,2.65,0,0,0-.55-.32l-.69-.3a9.41,9.41,0,0,1-.9-.45,2.83,2.83,0,0,1-.65-.51,2,2,0,0,1-.39-.65,2.41,2.41,0,0,1-.13-.85,2.14,2.14,0,0,1,.25-1.05,2.19,2.19,0,0,1,.66-.76,3,3,0,0,1,.94-.47,4.29,4.29,0,0,1,2.89.23V335a3.33,3.33,0,0,0-2-.61,2,2,0,0,0-.62.09,1.54,1.54,0,0,0-.48.24,1.13,1.13,0,0,0-.31.38,1.06,1.06,0,0,0-.11.48,1.28,1.28,0,0,0,.11.55,1.08,1.08,0,0,0,.32.39,2.48,2.48,0,0,0,.51.32l.69.3a8.62,8.62,0,0,1,.91.44,3.09,3.09,0,0,1,.69.51,2,2,0,0,1,.44.66,2.13,2.13,0,0,1,.16.88,2.3,2.3,0,0,1-.25,1.08,2.39,2.39,0,0,1-.68.77,3,3,0,0,1-1,.45,4.26,4.26,0,0,1-1.15.15A4.13,4.13,0,0,1,675.74,341.61Z" transform="translate(-55.65 -52.41)"/><path class="cls-5" d="M533.13,358.26H527.7a3.33,3.33,0,0,0,.69,2.17,2.28,2.28,0,0,0,1.82.77,3.61,3.61,0,0,0,2.39-.94v1.27a4.23,4.23,0,0,1-2.68.8,3.13,3.13,0,0,1-2.57-1.15,5,5,0,0,1-.93-3.23,4.85,4.85,0,0,1,1-3.2,3.14,3.14,0,0,1,2.53-1.24,2.79,2.79,0,0,1,2.34,1.07,4.75,4.75,0,0,1,.82,3Zm-1.26-1.14a2.94,2.94,0,0,0-.51-1.82,1.67,1.67,0,0,0-1.41-.65,1.89,1.89,0,0,0-1.48.68,3.15,3.15,0,0,0-.75,1.79Z" transform="translate(-55.65 -52.41)"/><path class="cls-5" d="M540.24,361.75a3.72,3.72,0,0,1-2.1.58,3.35,3.35,0,0,1-2.66-1.17,4.52,4.52,0,0,1-1-3,5,5,0,0,1,1.09-3.35,3.66,3.66,0,0,1,2.91-1.26,3.81,3.81,0,0,1,1.79.41v1.38a3,3,0,0,0-1.83-.65,2.37,2.37,0,0,0-1.94.92,3.76,3.76,0,0,0-.76,2.43,3.57,3.57,0,0,0,.71,2.34,2.37,2.37,0,0,0,1.91.86,2.92,2.92,0,0,0,1.89-.74Z" transform="translate(-55.65 -52.41)"/><path class="cls-5" d="M545.33,362.33a3.42,3.42,0,0,1-2.73-1.18,4.62,4.62,0,0,1-1-3.13,4.86,4.86,0,0,1,1.06-3.32,3.66,3.66,0,0,1,2.87-1.19,3.31,3.31,0,0,1,2.68,1.16,5.68,5.68,0,0,1-.07,6.45A3.5,3.5,0,0,1,545.33,362.33Zm.09-7.68a2.24,2.24,0,0,0-1.88.88,3.87,3.87,0,0,0-.69,2.44,3.66,3.66,0,0,0,.69,2.36,2.29,2.29,0,0,0,1.88.87,2.18,2.18,0,0,0,1.83-.85,3.93,3.93,0,0,0,.65-2.41,4,4,0,0,0-.65-2.44A2.15,2.15,0,0,0,545.42,354.65Z" transform="translate(-55.65 -52.41)"/><path class="cls-5" d="M557.52,362.13h-1.24v-4.8c0-1.79-.59-2.68-1.78-2.68a1.86,1.86,0,0,0-1.53.76,2.93,2.93,0,0,0-.61,1.92v4.8h-1.23v-8.42h1.23v1.4h0a2.74,2.74,0,0,1,2.53-1.6,2.28,2.28,0,0,1,1.93.89,4.31,4.31,0,0,1,.67,2.58Z" transform="translate(-55.65 -52.41)"/><path class="cls-5" d="M563.06,362.33a3.42,3.42,0,0,1-2.73-1.18,4.62,4.62,0,0,1-1-3.13,4.86,4.86,0,0,1,1.06-3.32,3.66,3.66,0,0,1,2.87-1.19,3.31,3.31,0,0,1,2.68,1.16,5.68,5.68,0,0,1-.07,6.45A3.5,3.5,0,0,1,563.06,362.33Zm.09-7.68a2.24,2.24,0,0,0-1.88.88,3.87,3.87,0,0,0-.69,2.44,3.66,3.66,0,0,0,.69,2.36,2.29,2.29,0,0,0,1.88.87,2.17,2.17,0,0,0,1.83-.85,3.93,3.93,0,0,0,.65-2.41,4,4,0,0,0-.65-2.44A2.14,2.14,0,0,0,563.15,354.65Zm1.06-2.54h-1l-2-2.7h1.26Z" transform="translate(-55.65 -52.41)"/><path class="cls-5" d="M579.79,362.13h-1.24V357.3a4,4,0,0,0-.39-2,1.44,1.44,0,0,0-1.33-.62,1.61,1.61,0,0,0-1.34.79,3.17,3.17,0,0,0-.55,1.89v4.8h-1.23v-5c0-1.66-.59-2.48-1.75-2.48a1.56,1.56,0,0,0-1.34.74,3.3,3.3,0,0,0-.53,1.94v4.8h-1.23v-8.42h1.23V355h0a2.59,2.59,0,0,1,2.39-1.53,2.11,2.11,0,0,1,1.38.48,2.39,2.39,0,0,1,.8,1.26,2.73,2.73,0,0,1,2.56-1.74c1.69,0,2.54,1.14,2.54,3.43Z" transform="translate(-55.65 -52.41)"/><path class="cls-5" d="M582.75,351.57a.75.75,0,0,1-.57-.25,1,1,0,0,1,0-1.25.75.75,0,0,1,.57-.25.74.74,0,0,1,.57.25.92.92,0,0,1,0,1.24A.75.75,0,0,1,582.75,351.57Zm.6,10.56h-1.23v-8.42h1.23Z" transform="translate(-55.65 -52.41)"/><path class="cls-5" d="M591.09,361.75a3.72,3.72,0,0,1-2.1.58,3.34,3.34,0,0,1-2.66-1.17,4.52,4.52,0,0,1-1-3,5,5,0,0,1,1.09-3.35,3.65,3.65,0,0,1,2.91-1.26,3.84,3.84,0,0,1,1.79.41v1.38a3,3,0,0,0-1.84-.65,2.37,2.37,0,0,0-1.93.92,3.7,3.7,0,0,0-.76,2.43,3.57,3.57,0,0,0,.71,2.34,2.37,2.37,0,0,0,1.91.86,2.92,2.92,0,0,0,1.89-.74Z" transform="translate(-55.65 -52.41)"/><path class="cls-5" d="M592.49,361.83v-1.45a3.47,3.47,0,0,0,2.22.82c1.08,0,1.62-.4,1.62-1.19a1.15,1.15,0,0,0-.14-.57,1.37,1.37,0,0,0-.38-.42,2.41,2.41,0,0,0-.55-.32l-.69-.3a9.41,9.41,0,0,1-.9-.45,2.57,2.57,0,0,1-.64-.51,1.74,1.74,0,0,1-.39-.65,2.38,2.38,0,0,1-.14-.84,2.2,2.2,0,0,1,.25-1.05,2.46,2.46,0,0,1,.66-.77,3,3,0,0,1,1-.46,3.6,3.6,0,0,1,1.09-.16,4.13,4.13,0,0,1,1.79.38v1.36a3.31,3.31,0,0,0-2-.6,2,2,0,0,0-.63.08,1.8,1.8,0,0,0-.48.24,1.1,1.1,0,0,0-.3.38,1,1,0,0,0-.11.48,1.15,1.15,0,0,0,.11.55,1.2,1.2,0,0,0,.32.4,2.46,2.46,0,0,0,.51.31l.68.3c.34.15.65.29.92.44a3.86,3.86,0,0,1,.69.51,2,2,0,0,1,.44.66,2.35,2.35,0,0,1,.15.88,2.22,2.22,0,0,1-.25,1.09,2.33,2.33,0,0,1-.67.76,3.09,3.09,0,0,1-1,.45,4.37,4.37,0,0,1-1.15.15A4.11,4.11,0,0,1,592.49,361.83Z" transform="translate(-55.65 -52.41)"/><path class="cls-5" d="M610.27,362.13H609V360.7h0a2.8,2.8,0,0,1-2.65,1.63,2.77,2.77,0,0,1-2.31-1.13,4.92,4.92,0,0,1-.87-3.08,5.37,5.37,0,0,1,1-3.35,3.07,3.07,0,0,1,2.56-1.26,2.43,2.43,0,0,1,2.31,1.37h0v-5.22h1.23ZM609,358.32v-1.24a2.57,2.57,0,0,0-.62-1.73,2,2,0,0,0-1.56-.7,2.06,2.06,0,0,0-1.77.9,4.17,4.17,0,0,0-.65,2.5,3.83,3.83,0,0,0,.62,2.3,2,2,0,0,0,1.67.85,2.05,2.05,0,0,0,1.67-.82A3.21,3.21,0,0,0,609,358.32Z" transform="translate(-55.65 -52.41)"/><path class="cls-5" d="M619,358.26h-5.43a3.33,3.33,0,0,0,.69,2.17,2.28,2.28,0,0,0,1.82.77,3.61,3.61,0,0,0,2.39-.94v1.27a4.23,4.23,0,0,1-2.68.8,3.12,3.12,0,0,1-2.57-1.15,5,5,0,0,1-.93-3.23,4.85,4.85,0,0,1,1-3.2,3.14,3.14,0,0,1,2.53-1.24,2.79,2.79,0,0,1,2.34,1.07,4.75,4.75,0,0,1,.82,3Zm-1.26-1.14a2.94,2.94,0,0,0-.51-1.82,1.67,1.67,0,0,0-1.41-.65,1.87,1.87,0,0,0-1.48.68,3.23,3.23,0,0,0-.76,1.79Z" transform="translate(-55.65 -52.41)"/><path class="cls-5" d="M622.05,362.13h-1.23V349.66h1.23Z" transform="translate(-55.65 -52.41)"/><path class="cls-5" d="M624.08,361.83v-1.45a3.47,3.47,0,0,0,2.22.82c1.08,0,1.62-.4,1.62-1.19a1.15,1.15,0,0,0-.14-.57,1.37,1.37,0,0,0-.38-.42,2.41,2.41,0,0,0-.55-.32l-.69-.3a9.41,9.41,0,0,1-.9-.45,2.57,2.57,0,0,1-.64-.51,1.74,1.74,0,0,1-.39-.65,2.38,2.38,0,0,1-.14-.84,2.2,2.2,0,0,1,.25-1.05,2.46,2.46,0,0,1,.66-.77,3,3,0,0,1,1-.46,3.6,3.6,0,0,1,1.09-.16,4.13,4.13,0,0,1,1.79.38v1.36a3.31,3.31,0,0,0-2-.6,2,2,0,0,0-.63.08,1.8,1.8,0,0,0-.48.24,1.1,1.1,0,0,0-.3.38,1,1,0,0,0-.11.48,1.15,1.15,0,0,0,.11.55,1.09,1.09,0,0,0,.32.4,2.46,2.46,0,0,0,.51.31l.68.3c.34.15.65.29.92.44a3.86,3.86,0,0,1,.69.51,2,2,0,0,1,.44.66,2.35,2.35,0,0,1,.15.88,2.22,2.22,0,0,1-.25,1.09,2.33,2.33,0,0,1-.67.76,3.09,3.09,0,0,1-1,.45,4.37,4.37,0,0,1-1.15.15A4.11,4.11,0,0,1,624.08,361.83Z" transform="translate(-55.65 -52.41)"/><path class="cls-5" d="M636.56,360.92h0v1.21h-1.24V349.66h1.24v5.53h0a2.87,2.87,0,0,1,2.66-1.68,2.75,2.75,0,0,1,2.32,1.13,5.06,5.06,0,0,1,.83,3,5.56,5.56,0,0,1-.94,3.39,3,3,0,0,1-2.57,1.27A2.49,2.49,0,0,1,636.56,360.92Zm0-3.4v1.18a2.62,2.62,0,0,0,.62,1.77,2,2,0,0,0,1.57.73,2,2,0,0,0,1.76-.94,4.66,4.66,0,0,0,.63-2.61,3.69,3.69,0,0,0-.59-2.21,1.91,1.91,0,0,0-1.61-.79,2.12,2.12,0,0,0-1.73.81A3.19,3.19,0,0,0,636.53,357.52Z" transform="translate(-55.65 -52.41)"/><path class="cls-5" d="M649.65,362.13h-1.23v-1.31h0a2.56,2.56,0,0,1-2.37,1.51,2.37,2.37,0,0,1-1.8-.67,2.42,2.42,0,0,1-.65-1.76,2.58,2.58,0,0,1,2.54-2.75l2.31-.36c0-1.43-.53-2.14-1.59-2.14a3.6,3.6,0,0,0-2.51,1V354.3a4.46,4.46,0,0,1,2.62-.79c1.8,0,2.71,1.05,2.71,3.14Zm-1.23-4.26-1.86.28a2.77,2.77,0,0,0-1.29.47,1.39,1.39,0,0,0-.44,1.18,1.36,1.36,0,0,0,.4,1,1.45,1.45,0,0,0,1.07.4,1.91,1.91,0,0,0,1.52-.71,2.64,2.64,0,0,0,.6-1.78Z" transform="translate(-55.65 -52.41)"/><path class="cls-5" d="M653.2,362.13H652V349.66h1.23Z" transform="translate(-55.65 -52.41)"/><path class="cls-5" d="M661.21,362.13H660v-1.31h0a2.56,2.56,0,0,1-2.37,1.51,2.37,2.37,0,0,1-1.8-.67,2.42,2.42,0,0,1-.65-1.76,2.58,2.58,0,0,1,2.54-2.75l2.31-.36c0-1.43-.53-2.14-1.59-2.14a3.6,3.6,0,0,0-2.51,1V354.3a4.46,4.46,0,0,1,2.62-.79c1.8,0,2.71,1.05,2.71,3.14ZM660,357.87l-1.86.28a2.77,2.77,0,0,0-1.29.47,1.39,1.39,0,0,0-.44,1.18,1.32,1.32,0,0,0,.4,1,1.45,1.45,0,0,0,1.07.4,1.91,1.91,0,0,0,1.52-.71,2.64,2.64,0,0,0,.6-1.78Z" transform="translate(-55.65 -52.41)"/><path class="cls-5" d="M669.92,362.13h-1.23v-4.8c0-1.79-.6-2.68-1.79-2.68a1.86,1.86,0,0,0-1.53.76,3,3,0,0,0-.61,1.92v4.8h-1.23v-8.42h1.23v1.4h0a2.76,2.76,0,0,1,2.53-1.6,2.27,2.27,0,0,1,1.93.89,4.24,4.24,0,0,1,.67,2.58Z" transform="translate(-55.65 -52.41)"/><path class="cls-5" d="M677.49,361.75a3.73,3.73,0,0,1-2.11.58,3.33,3.33,0,0,1-2.65-1.17,4.47,4.47,0,0,1-1-3,5,5,0,0,1,1.09-3.35,3.63,3.63,0,0,1,2.9-1.26,3.78,3.78,0,0,1,1.79.41v1.38a3,3,0,0,0-1.83-.65,2.39,2.39,0,0,0-1.94.92A3.75,3.75,0,0,0,673,358a3.57,3.57,0,0,0,.71,2.34,2.35,2.35,0,0,0,1.9.86,2.92,2.92,0,0,0,1.9-.74Zm-.65,2.49c0,1-.69,1.45-2.07,1.45l-.48,0v-.74a4,4,0,0,0,.52.05c.71,0,1.06-.25,1.06-.74s-.32-.64-1-.64l-.3,0v-1.5h.81V363a1.57,1.57,0,0,1,1.05.33A1.17,1.17,0,0,1,676.84,364.24Z" transform="translate(-55.65 -52.41)"/><path class="cls-5" d="M682.57,362.33a3.38,3.38,0,0,1-2.72-1.18,4.62,4.62,0,0,1-1-3.13,4.81,4.81,0,0,1,1.06-3.32,3.64,3.64,0,0,1,2.86-1.19,3.33,3.33,0,0,1,2.69,1.16,4.91,4.91,0,0,1,1,3.22,4.77,4.77,0,0,1-1,3.23A3.47,3.47,0,0,1,682.57,362.33Zm.09-7.68a2.26,2.26,0,0,0-1.88.88,3.87,3.87,0,0,0-.69,2.44,3.61,3.61,0,0,0,.7,2.36,2.27,2.27,0,0,0,1.87.87,2.19,2.19,0,0,0,1.84-.85,3.93,3.93,0,0,0,.64-2.41,4,4,0,0,0-.64-2.44A2.16,2.16,0,0,0,682.66,354.65Z" transform="translate(-55.65 -52.41)"/><path class="cls-5" d="M687.91,361.83v-1.45a3.46,3.46,0,0,0,2.21.82c1.09,0,1.63-.4,1.63-1.19a1.15,1.15,0,0,0-.14-.57,1.37,1.37,0,0,0-.38-.42,2.65,2.65,0,0,0-.55-.32l-.69-.3a9.41,9.41,0,0,1-.9-.45,2.83,2.83,0,0,1-.65-.51,2,2,0,0,1-.39-.65,2.65,2.65,0,0,1-.13-.84,2.09,2.09,0,0,1,.25-1.05,2.33,2.33,0,0,1,.66-.77,3,3,0,0,1,.94-.46,3.71,3.71,0,0,1,1.1-.16,4.16,4.16,0,0,1,1.79.38v1.36a3.32,3.32,0,0,0-2-.6,2,2,0,0,0-.62.08,1.54,1.54,0,0,0-.48.24,1.26,1.26,0,0,0-.31.38,1.09,1.09,0,0,0-.11.48,1.28,1.28,0,0,0,.11.55,1.35,1.35,0,0,0,.32.4,2.46,2.46,0,0,0,.51.31l.69.3c.34.15.64.29.91.44a4,4,0,0,1,.7.51,2.12,2.12,0,0,1,.44.66,2.35,2.35,0,0,1,.15.88,2.22,2.22,0,0,1-.25,1.09,2.33,2.33,0,0,1-.67.76,3.19,3.19,0,0,1-1,.45,4.37,4.37,0,0,1-1.15.15A4.08,4.08,0,0,1,687.91,361.83Z" transform="translate(-55.65 -52.41)"/><path class="cls-5" d="M533.34,382.36H532.1v-4.81c0-1.79-.59-2.68-1.78-2.68a1.86,1.86,0,0,0-1.53.76,3,3,0,0,0-.61,1.92v4.81H527v-8.43h1.23v1.4h0a2.75,2.75,0,0,1,2.53-1.6,2.26,2.26,0,0,1,1.93.9,4.27,4.27,0,0,1,.67,2.58Z" transform="translate(-55.65 -52.41)"/><path class="cls-5" d="M541.85,378.48h-5.44a3.33,3.33,0,0,0,.69,2.17,2.28,2.28,0,0,0,1.82.77,3.57,3.57,0,0,0,2.39-.94v1.27a4.15,4.15,0,0,1-2.68.8,3.15,3.15,0,0,1-2.57-1.14,5,5,0,0,1-.93-3.23,4.9,4.9,0,0,1,1-3.21,3.17,3.17,0,0,1,2.53-1.24A2.79,2.79,0,0,1,541,374.8a4.79,4.79,0,0,1,.83,3Zm-1.27-1.14a2.88,2.88,0,0,0-.51-1.82,1.7,1.7,0,0,0-1.41-.65,1.92,1.92,0,0,0-1.48.68,3.18,3.18,0,0,0-.75,1.79Z" transform="translate(-55.65 -52.41)"/><path class="cls-5" d="M547.28,382.28a2.28,2.28,0,0,1-1.15.26c-1.35,0-2-.83-2-2.47v-5h-1.33v-1.15h1.33v-2.06l1.23-.43v2.49h1.94v1.15h-1.94v4.75a2.15,2.15,0,0,0,.26,1.21,1,1,0,0,0,.88.36,1.2,1.2,0,0,0,.8-.28Z" transform="translate(-55.65 -52.41)"/><path class="cls-5" d="M548.46,382.05V380.6a3.41,3.41,0,0,0,2.22.82c1.08,0,1.62-.4,1.62-1.19a1.15,1.15,0,0,0-.14-.57,1.46,1.46,0,0,0-.38-.41,2.86,2.86,0,0,0-.55-.33l-.69-.3a9.41,9.41,0,0,1-.9-.45,2.57,2.57,0,0,1-.64-.51,1.7,1.7,0,0,1-.39-.64,2.44,2.44,0,0,1-.14-.85,2.2,2.2,0,0,1,.25-1.05,2.42,2.42,0,0,1,.66-.76,2.82,2.82,0,0,1,1-.47,3.6,3.6,0,0,1,1.09-.16,4.13,4.13,0,0,1,1.79.38v1.37a3.25,3.25,0,0,0-2-.61,2.41,2.41,0,0,0-.63.08,1.57,1.57,0,0,0-.48.25,1.07,1.07,0,0,0-.3.37,1,1,0,0,0-.11.48,1.19,1.19,0,0,0,.11.56,1.15,1.15,0,0,0,.32.39,2.1,2.1,0,0,0,.51.31l.68.31a8.83,8.83,0,0,1,.92.44,3.09,3.09,0,0,1,.69.51,2,2,0,0,1,.44.65,2.35,2.35,0,0,1,.15.88,2.17,2.17,0,0,1-.92,1.85,2.9,2.9,0,0,1-1,.46,4.37,4.37,0,0,1-1.15.14A4,4,0,0,1,548.46,382.05Z" transform="translate(-55.65 -52.41)"/><path class="cls-5" d="M566.06,382.36h-1.23V377.5c0-1.75-.6-2.63-1.79-2.63a1.88,1.88,0,0,0-1.52.76,3,3,0,0,0-.61,1.95v4.78h-1.24V369.88h1.24v5.45h0a2.77,2.77,0,0,1,2.52-1.6c1.73,0,2.6,1.15,2.6,3.43Z" transform="translate(-55.65 -52.41)"/><path class="cls-5" d="M571.6,382.55a3.4,3.4,0,0,1-2.72-1.18,4.61,4.61,0,0,1-1-3.13,4.79,4.79,0,0,1,1.06-3.31,3.61,3.61,0,0,1,2.86-1.2,3.33,3.33,0,0,1,2.69,1.16,4.93,4.93,0,0,1,1,3.22,4.77,4.77,0,0,1-1,3.23A3.47,3.47,0,0,1,571.6,382.55Zm.09-7.68a2.26,2.26,0,0,0-1.88.88,3.89,3.89,0,0,0-.69,2.44,3.61,3.61,0,0,0,.7,2.36,2.28,2.28,0,0,0,1.87.87,2.16,2.16,0,0,0,1.84-.85,3.91,3.91,0,0,0,.64-2.41,4,4,0,0,0-.64-2.44A2.16,2.16,0,0,0,571.69,374.87Z" transform="translate(-55.65 -52.41)"/><path class="cls-5" d="M581.42,375.3a1.44,1.44,0,0,0-.94-.27,1.54,1.54,0,0,0-1.31.81,4,4,0,0,0-.53,2.22v4.3H577.4v-8.43h1.24v1.74h0a2.91,2.91,0,0,1,.8-1.39,1.75,1.75,0,0,1,1.21-.5,1.81,1.81,0,0,1,.74.12Z" transform="translate(-55.65 -52.41)"/><path class="cls-5" d="M588.26,382.36H587V381h0a2.54,2.54,0,0,1-2.37,1.51,2.43,2.43,0,0,1-1.8-.66,2.46,2.46,0,0,1-.65-1.77,2.58,2.58,0,0,1,2.54-2.75L587,377c0-1.44-.53-2.15-1.58-2.15a3.59,3.59,0,0,0-2.52,1v-1.39a4.53,4.53,0,0,1,2.62-.79c1.81,0,2.71,1,2.71,3.15ZM587,378.09l-1.85.28a2.88,2.88,0,0,0-1.3.47,1.39,1.39,0,0,0-.43,1.18,1.34,1.34,0,0,0,.4,1,1.47,1.47,0,0,0,1.07.39,1.88,1.88,0,0,0,1.51-.7,2.67,2.67,0,0,0,.6-1.79Z" transform="translate(-55.65 -52.41)"/><path class="cls-5" d="M594.6,375.3a1.41,1.41,0,0,0-.93-.27,1.54,1.54,0,0,0-1.32.81,4,4,0,0,0-.53,2.22v4.3h-1.23v-8.43h1.23v1.74h0a2.91,2.91,0,0,1,.8-1.39,1.78,1.78,0,0,1,1.21-.5,1.81,1.81,0,0,1,.74.12Z" transform="translate(-55.65 -52.41)"/><path class="cls-5" d="M596.57,371.79a.72.72,0,0,1-.56-.25.84.84,0,0,1-.24-.62.88.88,0,0,1,.24-.63.76.76,0,0,1,1.13,0,.93.93,0,0,1,0,1.25A.72.72,0,0,1,596.57,371.79Zm.6,10.57h-1.23v-8.43h1.23Z" transform="translate(-55.65 -52.41)"/><path class="cls-5" d="M599.2,382.05V380.6a3.41,3.41,0,0,0,2.22.82c1.08,0,1.62-.4,1.62-1.19a1.15,1.15,0,0,0-.14-.57,1.58,1.58,0,0,0-.37-.41,3.31,3.31,0,0,0-.56-.33l-.69-.3a9.41,9.41,0,0,1-.9-.45,2.76,2.76,0,0,1-.64-.51,1.7,1.7,0,0,1-.39-.64,2.45,2.45,0,0,1-.13-.85,2.2,2.2,0,0,1,.24-1.05,2.42,2.42,0,0,1,.66-.76,2.82,2.82,0,0,1,1-.47,3.64,3.64,0,0,1,1.09-.16,4.13,4.13,0,0,1,1.79.38v1.37a3.25,3.25,0,0,0-2-.61,2.47,2.47,0,0,0-.63.08,1.57,1.57,0,0,0-.48.25,1.07,1.07,0,0,0-.3.37,1,1,0,0,0-.11.48,1.19,1.19,0,0,0,.11.56,1.28,1.28,0,0,0,.32.39,2.1,2.1,0,0,0,.51.31l.68.31a8.83,8.83,0,0,1,.92.44,3.09,3.09,0,0,1,.69.51,2,2,0,0,1,.44.65,2.35,2.35,0,0,1,.15.88,2.17,2.17,0,0,1-.92,1.85,2.9,2.9,0,0,1-1,.46,4.37,4.37,0,0,1-1.15.14A4,4,0,0,1,599.2,382.05Z" transform="translate(-55.65 -52.41)"/><path class="cls-5" d="M617,382.36h-1.23v-1.43h0a2.81,2.81,0,0,1-2.65,1.62,2.74,2.74,0,0,1-2.31-1.13,4.92,4.92,0,0,1-.87-3.08,5.39,5.39,0,0,1,1-3.35,3.07,3.07,0,0,1,2.56-1.26,2.43,2.43,0,0,1,2.31,1.37h0v-5.22H617Zm-1.23-3.81V377.3a2.48,2.48,0,0,0-.62-1.72,2,2,0,0,0-1.56-.71,2.06,2.06,0,0,0-1.77.9,4.28,4.28,0,0,0-.65,2.51,3.85,3.85,0,0,0,.62,2.3,2,2,0,0,0,1.67.84,2,2,0,0,0,1.67-.82A3.18,3.18,0,0,0,615.75,378.55Z" transform="translate(-55.65 -52.41)"/><path class="cls-5" d="M620.11,371.79a.72.72,0,0,1-.56-.25.84.84,0,0,1-.24-.62.88.88,0,0,1,.24-.63.76.76,0,0,1,1.13,0,.93.93,0,0,1,0,1.25A.72.72,0,0,1,620.11,371.79Zm.6,10.57h-1.23v-8.43h1.23Z" transform="translate(-55.65 -52.41)"/><path class="cls-5" d="M629.6,382.36h-1.24v-4.81c0-1.79-.59-2.68-1.79-2.68a1.88,1.88,0,0,0-1.53.76,3,3,0,0,0-.6,1.92v4.81h-1.23v-8.43h1.23v1.4h0a2.75,2.75,0,0,1,2.52-1.6,2.27,2.27,0,0,1,1.94.9,4.27,4.27,0,0,1,.67,2.58Z" transform="translate(-55.65 -52.41)"/><path class="cls-5" d="M631.45,382.05V380.6a3.41,3.41,0,0,0,2.22.82c1.08,0,1.62-.4,1.62-1.19a1,1,0,0,0-.14-.57,1.58,1.58,0,0,0-.37-.41,3.31,3.31,0,0,0-.56-.33l-.69-.3a8.14,8.14,0,0,1-.89-.45,2.63,2.63,0,0,1-.65-.51,1.84,1.84,0,0,1-.39-.64,2.45,2.45,0,0,1-.13-.85,2.2,2.2,0,0,1,.24-1.05,2.33,2.33,0,0,1,.67-.76,2.77,2.77,0,0,1,.94-.47,3.64,3.64,0,0,1,1.09-.16,4.09,4.09,0,0,1,1.79.38v1.37a3.23,3.23,0,0,0-2-.61,2.47,2.47,0,0,0-.63.08,1.41,1.41,0,0,0-.47.25,1,1,0,0,0-.31.37,1.13,1.13,0,0,0-.11.48,1.33,1.33,0,0,0,.11.56,1.28,1.28,0,0,0,.32.39,2.1,2.1,0,0,0,.51.31l.68.31a8.83,8.83,0,0,1,.92.44,3.09,3.09,0,0,1,.69.51,2,2,0,0,1,.44.65,2.35,2.35,0,0,1,.15.88,2.22,2.22,0,0,1-.25,1.09,2.13,2.13,0,0,1-.67.76,2.81,2.81,0,0,1-1,.46,4.37,4.37,0,0,1-1.15.14A4,4,0,0,1,631.45,382.05Z" transform="translate(-55.65 -52.41)"/><path class="cls-5" d="M649.23,382.36H648v-1.43h0a2.8,2.8,0,0,1-2.64,1.62,2.76,2.76,0,0,1-2.32-1.13,4.92,4.92,0,0,1-.87-3.08,5.39,5.39,0,0,1,1-3.35,3.07,3.07,0,0,1,2.56-1.26A2.43,2.43,0,0,1,648,375.1h0v-5.22h1.23ZM648,378.55V377.3a2.52,2.52,0,0,0-.61-1.72,2,2,0,0,0-1.57-.71,2.06,2.06,0,0,0-1.77.9,4.28,4.28,0,0,0-.65,2.51,3.85,3.85,0,0,0,.62,2.3,2,2,0,0,0,1.67.84,2,2,0,0,0,1.67-.82A3.18,3.18,0,0,0,648,378.55Z" transform="translate(-55.65 -52.41)"/><path class="cls-5" d="M657.92,378.48h-5.44a3.33,3.33,0,0,0,.69,2.17,2.28,2.28,0,0,0,1.82.77,3.57,3.57,0,0,0,2.39-.94v1.27a4.15,4.15,0,0,1-2.68.8,3.12,3.12,0,0,1-2.56-1.14,5,5,0,0,1-.94-3.23,4.9,4.9,0,0,1,1-3.21,3.17,3.17,0,0,1,2.53-1.24,2.79,2.79,0,0,1,2.34,1.07,4.79,4.79,0,0,1,.83,3Zm-1.27-1.14a2.88,2.88,0,0,0-.51-1.82,1.7,1.7,0,0,0-1.41-.65,1.92,1.92,0,0,0-1.48.68,3.18,3.18,0,0,0-.75,1.79Z" transform="translate(-55.65 -52.41)"/><path class="cls-5" d="M661,382.36h-1.23V369.88H661Z" transform="translate(-55.65 -52.41)"/><path class="cls-5" d="M669,381.14h0v5.09h-1.24v-12.3H669v1.48h0a2.87,2.87,0,0,1,2.66-1.68,2.72,2.72,0,0,1,2.32,1.14,5,5,0,0,1,.83,3,5.51,5.51,0,0,1-.94,3.38,3,3,0,0,1-2.57,1.27A2.53,2.53,0,0,1,669,381.14Zm0-3.4v1.18a2.6,2.6,0,0,0,.62,1.77,2,2,0,0,0,1.57.73,2,2,0,0,0,1.76-.94,4.62,4.62,0,0,0,.63-2.61,3.64,3.64,0,0,0-.59-2.2,1.89,1.89,0,0,0-1.61-.8,2.1,2.1,0,0,0-1.73.82A3.15,3.15,0,0,0,669,377.74Z" transform="translate(-55.65 -52.41)"/><path class="cls-5" d="M683,378.48h-5.44a3.39,3.39,0,0,0,.7,2.17,2.27,2.27,0,0,0,1.82.77,3.58,3.58,0,0,0,2.39-.94v1.27a4.2,4.2,0,0,1-2.69.8,3.12,3.12,0,0,1-2.56-1.14,5,5,0,0,1-.93-3.23,4.9,4.9,0,0,1,1-3.21,3.15,3.15,0,0,1,2.53-1.24,2.78,2.78,0,0,1,2.33,1.07,4.79,4.79,0,0,1,.83,3Zm-1.26-1.14a2.94,2.94,0,0,0-.52-1.82,1.7,1.7,0,0,0-1.41-.65,1.93,1.93,0,0,0-1.48.68,3.32,3.32,0,0,0-.75,1.79Z" transform="translate(-55.65 -52.41)"/><path class="cls-5" d="M688.84,375.3a1.44,1.44,0,0,0-.94-.27,1.54,1.54,0,0,0-1.31.81,4,4,0,0,0-.53,2.22v4.3h-1.24v-8.43h1.24v1.74h0a2.91,2.91,0,0,1,.8-1.39,1.75,1.75,0,0,1,1.21-.5,1.81,1.81,0,0,1,.74.12Z" transform="translate(-55.65 -52.41)"/><path class="cls-5" d="M692.51,369.64l-2,2.69h-.95l1.68-2.69Zm-1.1,12.72h-1.23v-8.43h1.23Z" transform="translate(-55.65 -52.41)"/><path class="cls-5" d="M697.12,382.55a3.42,3.42,0,0,1-2.73-1.18,4.65,4.65,0,0,1-1-3.13,4.79,4.79,0,0,1,1.06-3.31,3.61,3.61,0,0,1,2.86-1.2,3.33,3.33,0,0,1,2.69,1.16,4.93,4.93,0,0,1,1,3.22,4.77,4.77,0,0,1-1,3.23A3.47,3.47,0,0,1,697.12,382.55Zm.09-7.68a2.26,2.26,0,0,0-1.88.88,3.89,3.89,0,0,0-.69,2.44,3.61,3.61,0,0,0,.7,2.36,2.27,2.27,0,0,0,1.87.87,2.16,2.16,0,0,0,1.84-.85,3.91,3.91,0,0,0,.64-2.41,4,4,0,0,0-.64-2.44A2.16,2.16,0,0,0,697.21,374.87Z" transform="translate(-55.65 -52.41)"/><path class="cls-5" d="M709.49,382.36h-1.23v-1.43h0a2.82,2.82,0,0,1-2.65,1.62,2.77,2.77,0,0,1-2.32-1.13,4.92,4.92,0,0,1-.86-3.08,5.39,5.39,0,0,1,1-3.35,3.05,3.05,0,0,1,2.56-1.26,2.43,2.43,0,0,1,2.31,1.37h0v-5.22h1.23Zm-1.23-3.81V377.3a2.52,2.52,0,0,0-.62-1.72,2,2,0,0,0-1.56-.71,2.06,2.06,0,0,0-1.77.9,4.2,4.2,0,0,0-.65,2.51,3.85,3.85,0,0,0,.62,2.3,2,2,0,0,0,1.66.84,2,2,0,0,0,1.68-.82A3.24,3.24,0,0,0,708.26,378.55Z" transform="translate(-55.65 -52.41)"/><path class="cls-5" d="M718.17,378.48h-5.43a3.33,3.33,0,0,0,.69,2.17,2.28,2.28,0,0,0,1.82.77,3.57,3.57,0,0,0,2.39-.94v1.27a4.17,4.17,0,0,1-2.68.8,3.14,3.14,0,0,1-2.57-1.14,5,5,0,0,1-.93-3.23,4.9,4.9,0,0,1,1-3.21,3.17,3.17,0,0,1,2.53-1.24,2.8,2.8,0,0,1,2.34,1.07,4.79,4.79,0,0,1,.82,3Zm-1.26-1.14a2.94,2.94,0,0,0-.52-1.82,1.67,1.67,0,0,0-1.4-.65,1.94,1.94,0,0,0-1.49.68,3.32,3.32,0,0,0-.75,1.79Z" transform="translate(-55.65 -52.41)"/><path class="cls-5" d="M533.52,402.58h-1.24v-1.43h0a3,3,0,0,1-5,.5,4.94,4.94,0,0,1-.87-3.08,5.37,5.37,0,0,1,1-3.35A3.08,3.08,0,0,1,530,394a2.42,2.42,0,0,1,2.3,1.36h0v-5.21h1.24Zm-1.24-3.81v-1.24a2.54,2.54,0,0,0-.61-1.73,2,2,0,0,0-1.57-.71,2,2,0,0,0-1.77.91,4.24,4.24,0,0,0-.65,2.5,3.76,3.76,0,0,0,.63,2.3,2,2,0,0,0,1.66.84,2,2,0,0,0,1.67-.81A3.23,3.23,0,0,0,532.28,398.77Z" transform="translate(-55.65 -52.41)"/><path class="cls-5" d="M542.2,398.7h-5.44a3.36,3.36,0,0,0,.7,2.18,2.26,2.26,0,0,0,1.81.76,3.55,3.55,0,0,0,2.39-.94V402a4.16,4.16,0,0,1-2.68.81,3.1,3.1,0,0,1-2.56-1.15,5,5,0,0,1-.93-3.23,4.85,4.85,0,0,1,1-3.2A3.12,3.12,0,0,1,539,394a2.76,2.76,0,0,1,2.34,1.07,4.75,4.75,0,0,1,.83,3Zm-1.26-1.14a3,3,0,0,0-.52-1.82,1.7,1.7,0,0,0-1.41-.65,1.91,1.91,0,0,0-1.48.69,3.22,3.22,0,0,0-.75,1.78Z" transform="translate(-55.65 -52.41)"/><path class="cls-5" d="M552.08,391.29a1.5,1.5,0,0,0-.82-.22c-.86,0-1.29.59-1.29,1.78v1.3h1.8v1.16H550v7.27h-1.22v-7.27h-1.32v-1.16h1.32v-1.36a3.06,3.06,0,0,1,.69-2.1,2.27,2.27,0,0,1,1.75-.76,2.21,2.21,0,0,1,.89.14Z" transform="translate(-55.65 -52.41)"/><path class="cls-5" d="M558.61,402.58h-1.24v-1.32h0a2.54,2.54,0,0,1-2.36,1.52,2.28,2.28,0,0,1-2.45-2.44,2.58,2.58,0,0,1,2.54-2.75l2.3-.35c0-1.43-.52-2.15-1.58-2.15a3.6,3.6,0,0,0-2.51,1v-1.38a4.43,4.43,0,0,1,2.61-.79c1.81,0,2.72,1.05,2.72,3.14Zm-1.24-4.26-1.85.28a3,3,0,0,0-1.3.46,1.4,1.4,0,0,0-.43,1.18,1.33,1.33,0,0,0,.4,1,1.47,1.47,0,0,0,1.07.39,1.91,1.91,0,0,0,1.52-.7,2.69,2.69,0,0,0,.59-1.78Z" transform="translate(-55.65 -52.41)"/><path class="cls-5" d="M566.18,402.19a3.78,3.78,0,0,1-2.11.59,3.35,3.35,0,0,1-2.66-1.17,4.53,4.53,0,0,1-1-3,5,5,0,0,1,1.09-3.35,4,4,0,0,1,4.7-.85v1.38a2.94,2.94,0,0,0-1.83-.66,2.38,2.38,0,0,0-1.94.93,3.75,3.75,0,0,0-.75,2.43,3.52,3.52,0,0,0,.71,2.34,2.33,2.33,0,0,0,1.9.85,3,3,0,0,0,1.9-.73Z" transform="translate(-55.65 -52.41)"/><path class="cls-5" d="M571.61,402.5a2.28,2.28,0,0,1-1.15.26c-1.35,0-2-.82-2-2.47v-5h-1.33v-1.16h1.33v-2l1.23-.44v2.49h1.94v1.16h-1.94v4.74a2.15,2.15,0,0,0,.26,1.21,1,1,0,0,0,.88.37,1.26,1.26,0,0,0,.8-.28Z" transform="translate(-55.65 -52.41)"/><path class="cls-5" d="M579.48,402.58h-1.23v-1.33h0a2.53,2.53,0,0,1-2.38,1.53q-2.75,0-2.75-3.59v-5h1.22V399c0,1.77.63,2.66,1.87,2.66a1.8,1.8,0,0,0,1.48-.73,2.93,2.93,0,0,0,.59-1.9v-4.86h1.23Z" transform="translate(-55.65 -52.41)"/><path class="cls-5" d="M586,395.52a1.43,1.43,0,0,0-.93-.27,1.54,1.54,0,0,0-1.32.81,4.1,4.1,0,0,0-.53,2.22v4.3H582v-8.43h1.23v1.74h0a3,3,0,0,1,.8-1.39,1.75,1.75,0,0,1,1.21-.49,1.83,1.83,0,0,1,.74.11Z" transform="translate(-55.65 -52.41)"/><path class="cls-5" d="M592.83,402.58h-1.24v-1.32h0a2.54,2.54,0,0,1-2.36,1.52,2.28,2.28,0,0,1-2.45-2.44,2.58,2.58,0,0,1,2.54-2.75l2.3-.35c0-1.43-.52-2.15-1.58-2.15a3.6,3.6,0,0,0-2.51,1v-1.38a4.43,4.43,0,0,1,2.61-.79c1.81,0,2.72,1.05,2.72,3.14Zm-1.24-4.26-1.85.28a3,3,0,0,0-1.3.46,1.4,1.4,0,0,0-.43,1.18,1.33,1.33,0,0,0,.4,1,1.48,1.48,0,0,0,1.07.39,1.91,1.91,0,0,0,1.52-.7,2.69,2.69,0,0,0,.59-1.78Z" transform="translate(-55.65 -52.41)"/><path class="cls-5" d="M600.4,402.19a3.78,3.78,0,0,1-2.11.59,3.35,3.35,0,0,1-2.66-1.17,4.53,4.53,0,0,1-1-3,5,5,0,0,1,1.09-3.35,4,4,0,0,1,4.7-.85v1.38a2.94,2.94,0,0,0-1.83-.66,2.38,2.38,0,0,0-1.94.93,3.75,3.75,0,0,0-.75,2.43,3.52,3.52,0,0,0,.71,2.34,2.33,2.33,0,0,0,1.9.85,3,3,0,0,0,1.9-.73Z" transform="translate(-55.65 -52.41)"/><path class="cls-5" d="M602.89,392a.75.75,0,0,1-.56-.25.87.87,0,0,1-.24-.63.88.88,0,0,1,.24-.63.75.75,0,0,1,.56-.25.79.79,0,0,1,.58.25,1,1,0,0,1,0,1.25A.77.77,0,0,1,602.89,392Zm.6,10.56h-1.23v-8.43h1.23Z" transform="translate(-55.65 -52.41)"/><path class="cls-5" d="M609.2,402.78a3.44,3.44,0,0,1-2.72-1.18,4.62,4.62,0,0,1-1-3.13,4.81,4.81,0,0,1,1.06-3.32,3.65,3.65,0,0,1,2.86-1.19,3.28,3.28,0,0,1,2.69,1.16,5.66,5.66,0,0,1-.07,6.44A3.51,3.51,0,0,1,609.2,402.78Zm.09-7.69a2.25,2.25,0,0,0-1.87.89,3.81,3.81,0,0,0-.7,2.44,3.69,3.69,0,0,0,.7,2.36,2.27,2.27,0,0,0,1.87.86,2.16,2.16,0,0,0,1.84-.85,3.89,3.89,0,0,0,.64-2.41,4,4,0,0,0-.64-2.43A2.17,2.17,0,0,0,609.29,395.09Zm1.81-5.23-2,2.7h-1l1.68-2.7Z" transform="translate(-55.65 -52.41)"/></svg>